<svg xmlns="http://www.w3.org/2000/svg" width="960" height="640" viewBox="0 0 960 640" role="img" aria-label="Bad shopping list contact sheet">
  <rect width="960" height="640" fill="#fbfaf8"/>
  <rect x="70" y="60" width="820" height="450" fill="#ffffff" stroke="#d8d0c6"/>
  <text x="95" y="95" font-family="Arial" font-size="14" font-weight="700">Aktywna lista</text>
  <text x="95" y="125" font-family="Arial" font-size="18" font-weight="700">Sobotnie zakupy</text>
  <text x="95" y="154" font-family="Arial" font-size="13" fill="#8a6b5a">4 pozycji</text>
  <g fill="#e3dfd8">
    <rect x="95" y="190" width="770" height="58" rx="14"/>
    <rect x="95" y="258" width="770" height="58" rx="14"/>
    <rect x="95" y="326" width="770" height="58" rx="14"/>
    <rect x="95" y="394" width="770" height="58" rx="14"/>
  </g>
  <g font-family="Arial" font-size="13" font-weight="700" fill="#121212">
    <text x="115" y="217">Mleko</text>
    <text x="115" y="285">Maslo</text>
    <text x="115" y="353">Pomidory</text>
    <text x="115" y="421">Chleb</text>
  </g>
  <g font-family="Arial" font-size="12" fill="#8a6b5a">
    <text x="115" y="236">1 szt</text>
    <text x="115" y="304">1 szt</text>
    <text x="115" y="372">1 szt</text>
    <text x="115" y="440">1 szt</text>
  </g>
  <rect x="95" y="500" width="780" height="100" fill="#dfdbd3" transform="rotate(-1 485 550)"/>
  <text x="115" y="548" font-family="Arial" font-size="12" fill="#9c6a50" letter-spacing="2">SZACOWANY KOSZT</text>
  <text x="270" y="555" font-family="Arial" font-size="46" fill="#2b2b2b">42.30</text>
  <text x="70" y="535" font-family="Arial" font-size="15" font-weight="700">Znajdz produkt</text>
  <rect x="70" y="548" width="710" height="35" fill="#fff" stroke="#d8d0c6"/>
  <rect x="790" y="548" width="80" height="35" fill="#fff" stroke="#d8d0c6"/>
</svg>
